<svg id="Logo" xmlns="http://www.w3.org/2000/svg" viewBox="0 0 2020 1180"><defs><style>.cls-1{fill:#fff;stroke:#fff;stroke-miterlimit:10;stroke-width:3px;}</style></defs><title>logocrop</title><path class="cls-1" d="M1884.72,189.31V18.6h111.2V985a45.93,45.93,0,0,0,14.08,33.1h0l-125.28,142.67V330.27l-58-56.39V920.72h-111.2V18.6Z"/><path class="cls-1" d="M1206.56,18.6h111.2v851A46.71,46.71,0,0,0,1335,905.85h0l-128.41,142.4V301h-56.39V920.72H1039V18.6h111.2V187.75h56.39Z"/><path class="cls-1" d="M700.68,18.6H979.46V129.8H894.89v916.4L769.6,905.7h0a46.46,46.46,0,0,0,15.65-34.77V129.8H700.68Z"/><path class="cls-1" d="M135.28,18.6l-.08,169.15h58V18.6H306V919.16H193.23V300.51H135.28V1161.4L10,1018.07h0a40.09,40.09,0,0,0,14.14-30.52L24.48,18.6Z"/><path class="cls-1" d="M1375.7,18.6h281.92V131.36H1485.34v56.91h114.33V300.51H1485.34l1.56,464.8,169.15-169.15V751.23L1488.87,919.49,1361.62,792.4h0a44.68,44.68,0,0,0,14.08-32.57Z"/><path class="cls-1" d="M361.62,18.6H643.53V131.36H471.25v56.91H585.59V300.51H471.25l1.57,464.8L642,596.16V751.23L474.79,919.49,347.54,792.4h0a44.72,44.72,0,0,0,14.08-32.57Z"/></svg>