<svg id="Logo" xmlns="http://www.w3.org/2000/svg" viewBox="0 0 2020 1180"><defs><style>.cls-1{fill:#fff;stroke:#fff;stroke-miterlimit:10;stroke-width:3px;}</style></defs><title>Logo 2019 Crop</title><polygon class="cls-1" points="1897.21 183.59 1897.21 10.44 2010 10.44 2010 1040.05 1897.21 1168.89 1897.21 326.56 1838.43 269.37 1838.43 925.45 1725.65 925.45 1725.65 10.44 1897.21 183.59"/><polygon class="cls-1" points="1209.37 10.44 1322.15 10.44 1322.15 924.65 1209.37 1054.8 1209.37 296.91 1152.18 296.91 1152.18 925.45 1039.39 925.45 1039.39 10.44 1152.18 10.44 1152.18 182 1209.37 182 1209.37 10.44"/><polygon class="cls-1" points="696.26 10.44 979.02 10.44 979.02 123.22 893.24 123.22 893.24 1052.71 782.04 924.5 782.04 123.22 696.26 123.22 696.26 10.44"/><polygon class="cls-1" points="122.79 10.44 122.7 182 181.56 182 181.56 10.44 295.94 10.44 295.94 923.86 181.56 923.86 181.56 296.38 122.79 296.38 122.79 1169.57 10 1041.64 10.4 10.44 122.79 10.44"/><polygon class="cls-1" points="353.13 10.44 639.07 10.44 639.07 124.81 464.33 124.81 464.33 182.53 580.29 182.53 580.29 296.38 464.33 296.38 464.33 599.78 723.2 857.06 723.2 1012.75 353.13 641.09 353.13 10.44"/><polygon class="cls-1" points="1380.93 10.44 1666.87 10.44 1666.87 124.81 1492.13 124.81 1492.13 182.53 1608.09 182.53 1608.09 296.38 1492.13 296.38 1493.72 742.42 1665.28 570.85 1665.28 728.13 1380.93 1014.34 1380.93 10.44"/></svg>