<?xml version="1.0" encoding="UTF-8" standalone="no"?>
<!DOCTYPE svg PUBLIC "-//W3C//DTD SVG 1.1//EN" "http://www.w3.org/Graphics/SVG/1.1/DTD/svg11.dtd">
<svg width="100%" height="100%" viewBox="0 0 2020 1180" version="1.1" xmlns="http://www.w3.org/2000/svg" xmlns:xlink="http://www.w3.org/1999/xlink" xml:space="preserve" xmlns:serif="http://www.serif.com/" style="fill-rule:evenodd;clip-rule:evenodd;stroke-linejoin:round;stroke-miterlimit:2;">
    <g transform="matrix(0.679095,0,0,0.679095,-33.0892,-61.9308)">
        <g id="Layer1">
            <path d="M669.462,209L761.892,209L761.892,447.009L854.323,393.862L854.323,209L946.754,209L946.754,1433.71L854.323,1526.14L854.323,500.157L761.892,553.305L761.892,1711L669.462,1618.57L669.462,209ZM2125.25,209L2310.11,393.862L2310.11,209L2402.54,209L2402.54,1618.57L2310.11,1711L2310.11,520.954L2217.68,428.523L2217.68,1526.14L2125.25,1433.71L2125.25,209ZM1824.85,209L2102.14,209L2102.14,301.431L1917.28,301.431L1917.28,393.862L2055.92,393.862L2055.92,486.292L1917.28,486.292L1917.28,1341.28L2009.71,1491.48L2009.71,555.615L2102.14,624.938L2102.14,1479.92L1963.49,1595.46L1824.85,1364.38L1824.85,209ZM970.519,209L1247.15,209L1247.15,301.431L1062.29,301.431L1062.29,393.862L1200.94,393.862L1200.94,486.292L1062.29,486.292L1062.29,1491.48L1154.72,1341.28L1154.72,624.938L1247.15,555.615L1247.15,1364.38L1108.51,1595.46L969.862,1479.92L970.519,209ZM1270.26,209L1501.34,209L1501.34,301.431L1432.02,301.431L1432.02,1572.35L1339.59,1479.92L1339.59,301.431L1270.26,301.431L1270.26,209ZM1524.45,209L1616.88,209L1616.88,393.862L1709.31,393.862L1709.31,209L1801.74,209L1801.74,1479.92L1709.31,1572.35L1709.31,486.292L1616.88,486.292L1616.88,1410.6L1524.45,1318.17L1524.45,209Z" style="fill:white;"/>
        </g>
    </g>
</svg>
